<?xml version="1.0" standalone="no"?>
<!DOCTYPE svg PUBLIC "-//W3C//DTD SVG 20010904//EN"
 "http://www.w3.org/TR/2001/REC-SVG-20010904/DTD/svg10.dtd">
<svg version="1.0" xmlns="http://www.w3.org/2000/svg"
 width="400.000000pt" height="400.000000pt" viewBox="0 0 400.000000 400.000000"
 preserveAspectRatio="xMidYMid meet">
<metadata>
Created by potrace 1.11, written by Peter Selinger 2001-2013
</metadata>
<g transform="translate(0.000000,400.000000) scale(0.100000,-0.100000)"
fill="#000000" stroke="none">
<path d="M1845 3755 c-160 -34 -272 -112 -343 -237 -39 -70 -56 -126 -86 -288
-33 -175 -40 -214 -41 -220 -1 -3 -5 -31 -9 -62 -5 -35 -19 -75 -37 -102 -30
-48 -136 -168 -274 -311 -102 -105 -129 -148 -113 -179 31 -59 82 -49 222 42
28 18 60 32 73 32 20 0 23 -5 23 -34 0 -46 51 -242 88 -337 l29 -76 -58 -27
c-106 -51 -141 -117 -115 -223 10 -41 84 -110 128 -118 18 -3 146 -5 283 -3
243 3 251 4 283 26 38 27 61 68 68 119 2 20 6 39 9 41 10 10 23 -11 29 -50 4
-23 18 -57 32 -75 48 -63 56 -64 353 -61 l269 3 39 31 c69 56 90 115 67 193
-15 50 -53 88 -123 120 l-49 24 34 93 c46 127 82 274 84 343 0 22 56 5 116
-35 99 -65 157 -79 187 -46 38 42 25 65 -140 238 -253 267 -254 269 -283 439
-26 154 -25 148 -45 250 -9 44 -17 87 -19 95 -16 89 -73 194 -143 263 -118
118 -342 173 -538 132z m24 -473 c29 -17 81 -72 81 -85 0 -4 -16 4 -36 19 -25
20 -51 29 -90 32 -66 5 -104 -9 -144 -55 -32 -36 -37 -33 -42 21 -3 25 4 34
37 57 22 15 49 30 60 32 37 6 108 -4 134 -21z m418 -8 c37 -21 43 -30 43 -57
0 -53 -13 -61 -39 -26 -53 72 -181 80 -249 16 -26 -24 -52 -79 -52 -108 0 -11
-4 -19 -9 -19 -5 0 -8 8 -6 18 1 9 -4 32 -11 51 -13 30 -12 36 2 52 16 17 18
17 29 3 10 -15 14 -13 34 14 63 89 165 111 258 56z m-420 -55 c72 -27 106
-102 79 -174 -57 -148 -286 -108 -286 51 0 34 7 51 32 80 18 20 41 40 52 44
30 12 90 12 123 -1z m371 -9 c121 -74 77 -245 -67 -257 -56 -5 -106 19 -138
67 -40 57 -23 135 38 183 43 34 117 37 167 7z m136 -93 c5 -82 -27 -151 -85
-186 l-28 -17 29 -36 c34 -42 32 -54 -13 -85 -53 -37 -142 -28 -210 20 -16 11
-48 22 -72 25 -36 4 -53 -1 -100 -28 -96 -55 -196 -50 -239 11 -14 20 -13 23
8 40 38 30 38 53 -1 84 -64 50 -88 139 -61 226 10 34 27 53 29 32 11 -137 18
-173 37 -200 62 -87 210 -89 273 -4 29 39 48 39 85 0 75 -80 182 -84 261 -10
25 23 45 79 41 113 -1 13 1 45 6 73 l8 50 15 -29 c8 -15 16 -51 17 -79z m-659
-538 c52 -65 109 -126 127 -135 68 -35 267 -23 311 19 49 47 186 224 210 271
l25 49 42 -71 c48 -82 86 -193 105 -307 13 -80 14 -301 1 -365 l-7 -35 -137 0
c-102 -1 -151 -5 -193 -18 -71 -22 -139 -67 -162 -106 -14 -25 -25 -31 -50
-31 -27 0 -40 9 -70 45 -69 82 -192 120 -364 112 -96 -4 -113 -2 -119 12 -11
27 -14 322 -3 376 5 28 12 64 15 80 12 75 58 186 108 264 l28 44 19 -43 c11
-24 62 -96 114 -161z m340 177 c78 -33 80 -108 3 -121 -29 -5 -44 -3 -57 9
-16 15 -19 15 -31 1 -24 -29 -103 -12 -115 24 -11 35 5 62 48 82 50 22 105 24
152 5z"/>
<path d="M1805 3130 c-24 -39 5 -88 44 -75 26 8 38 50 21 70 -14 17 -56 20
-65 5z"/>
<path d="M2102 3128 c-17 -17 -15 -53 3 -68 21 -17 65 2 65 29 0 47 -38 69
-68 39z"/>
<path d="M1900 2711 c0 -12 37 -34 65 -39 30 -5 95 19 95 36 0 11 -3 12 -13 4
-22 -19 -88 -22 -119 -6 -15 8 -28 10 -28 5z"/>
<path d="M270 1472 c-92 -12 -248 -86 -258 -122 -4 -14 -7 -178 -7 -365 0
-329 1 -342 22 -388 23 -50 59 -73 100 -62 54 13 93 114 96 251 2 61 4 65 27
70 125 26 227 106 287 223 23 47 28 68 28 131 0 81 -21 138 -72 192 -48 51
-143 81 -223 70z m70 -248 c23 -26 16 -72 -16 -105 -32 -34 -80 -63 -92 -55
-4 2 -9 38 -10 79 -3 74 -2 75 25 85 42 15 79 14 93 -4z"/>
<path d="M2655 1454 c-103 -16 -184 -38 -236 -64 -45 -23 -88 -74 -84 -97 2
-10 4 -21 4 -25 2 -21 60 -43 128 -48 l75 -5 2 -290 c3 -301 8 -340 49 -373
22 -19 68 -22 93 -5 43 28 48 56 49 288 1 121 6 258 10 305 5 47 8 88 7 92 -1
4 22 14 51 22 87 25 167 90 162 131 -3 28 -17 51 -37 64 -31 20 -162 22 -273
5z"/>
<path d="M789 1260 c-56 -10 -146 -58 -169 -91 -32 -44 -37 -92 -11 -118 29
-29 55 -26 135 14 51 26 77 33 100 29 43 -7 66 -32 66 -69 0 -31 -2 -32 -57
-45 -123 -27 -242 -101 -269 -166 -44 -106 28 -229 144 -247 41 -7 127 15 176
43 36 22 36 22 36 2 0 -36 41 -73 83 -74 72 -2 96 53 95 222 0 105 -5 167 -22
258 -9 47 -53 143 -79 170 -48 52 -152 85 -228 72z m132 -415 c1 -8 1 -24 1
-35 0 -34 -1 -36 -29 -50 -68 -31 -123 -29 -123 5 0 47 148 125 151 80z"/>
<path d="M2007 1254 c-104 -24 -177 -90 -177 -160 0 -36 26 -64 59 -64 13 0
49 14 80 31 67 35 106 42 142 23 28 -14 39 -33 39 -67 0 -19 -10 -24 -71 -39
-111 -27 -218 -91 -255 -152 -34 -58 -17 -154 39 -207 64 -62 151 -69 249 -21
l58 28 10 -32 c15 -44 69 -71 107 -52 52 25 66 68 68 201 4 263 -53 434 -162
490 -51 27 -123 35 -186 21z m151 -441 l3 -41 -53 -20 c-115 -43 -136 37 -23
89 57 26 69 22 73 -28z"/>
<path d="M2965 1226 c-87 -87 -125 -331 -76 -487 39 -125 138 -191 273 -183
93 6 167 54 210 138 53 103 56 311 6 443 -33 89 -90 116 -145 69 -31 -27 -32
-37 -17 -254 8 -123 -8 -182 -56 -202 -88 -36 -121 69 -86 278 19 111 10 181
-27 207 -30 21 -54 19 -82 -9z"/>
<path d="M1250 1218 c-49 -53 -56 -139 -50 -628 3 -243 24 -343 75 -356 60
-15 103 39 111 138 7 94 13 190 13 221 1 27 1 27 20 8 24 -24 78 -35 132 -28
126 17 209 165 204 362 -3 144 -43 240 -118 285 -58 36 -182 12 -249 -47 -15
-13 -18 -12 -34 19 -9 18 -22 36 -28 40 -21 14 -55 8 -76 -14z m296 -186 c21
-14 36 -54 36 -96 0 -91 -37 -166 -82 -166 -31 0 -87 31 -97 54 -14 31 -16
132 -3 156 24 44 111 75 146 52z"/>
<path d="M3884 1212 c-43 -32 -116 -111 -142 -154 -9 -16 -20 -28 -24 -28 -4
0 -21 26 -38 58 -28 52 -92 131 -109 133 -42 5 -56 3 -73 -11 -11 -9 -21 -27
-22 -41 -3 -33 37 -148 73 -216 l31 -56 -49 -81 c-70 -116 -81 -142 -83 -181
-2 -43 16 -65 52 -65 32 0 65 24 142 103 l58 59 68 -70 c72 -75 108 -93 147
-72 49 26 39 84 -37 209 l-45 74 60 95 c109 173 126 222 89 255 -27 24 -54 21
-98 -11z"/>
</g>
</svg>
